# xmcd
#
# Track frame offsets:
#	150
#	19709
#	42364
#	60547
#	78662
#	98200
#	125406
#	147500
#	154936
#	170290
#	191045
#	213004
#	228129
#	243712
#	259577
#	268740
#	280827
#	288925
#	307634
#	329129
#	345817
#
# Disc length: 4754 seconds
# Revision: 0
# Processed by: cddbd v1.5.2PL0 Copyright (c) Steve Scherf et al.
# Submitted via: dBpowerAMP V12.0
#
DISCID=2a129015
DTITLE=Zoran Drvenkar - Du CD6
DYEAR=2010
DGENRE=Hörbuch
TTITLE0=Ragnar 103
TTITLE1=Ragnar 102
TTITLE2=Stinke 105
TTITLE3=Taja 106
TTITLE4=Taja 107
TTITLE5=Taja 108
TTITLE6=Taja 109
TTITLE7=Darian 110
TTITLE8=Schnappi 111
TTITLE9=Darian 112
TTITLE10=Der Reisende 113
TTITLE11=Taja 114
TTITLE12=Stinke 115
TTITLE13=Stinke 116
TTITLE14=Darian 117
TTITLE15=Schnappi 118
TTITLE16=Nessi 119
TTITLE17=Ragnar 120
TTITLE18=Ragnar 121
TTITLE19=Der Reisende 122
TTITLE20=Der Reisende 123
EXTD=
EXTT0=
EXTT1=
EXTT2=
EXTT3=
EXTT4=
EXTT5=
EXTT6=
EXTT7=
EXTT8=
EXTT9=
EXTT10=
EXTT11=
EXTT12=
EXTT13=
EXTT14=
EXTT15=
EXTT16=
EXTT17=
EXTT18=
EXTT19=
EXTT20=
PLAYORDER=
